<?xml version="1.0" encoding="UTF-8"?>
<svg width="32px" height="32px" viewBox="0 0 32 32" version="1.1" xmlns="http://www.w3.org/2000/svg" xmlns:xlink="http://www.w3.org/1999/xlink">
    <title>email</title>
    <g id="Page-1" stroke="none" stroke-width="1" fill="none" fill-rule="evenodd">
        <g id="Artboard" transform="translate(-195.000000, -179.000000)" fill="#000000">
            <g id="email" transform="translate(195.000000, 179.000000)">
                <path d="M16,0 C24.836556,0 32,7.163444 32,16 C32,24.836556 24.836556,32 16,32 C7.163444,32 0,24.836556 0,16 C0,7.163444 7.163444,0 16,0 Z M24,14.109375 C24,13.95625 23.81875,13.865625 23.696875,13.9625 C22.996875,14.50625 22.071875,15.2 18.884375,17.515625 C18.25,17.978125 17.115625,19.0125 16,19.003125 C14.890625,19.009375 13.778125,17.996875 13.11875,17.515625 C9.93125,15.2 9.003125,14.509375 8.303125,13.965625 C8.178125,13.86875 8,13.95625 8,14.1125 L8,14.1125 L8,20.5 C8,21.328125 8.671875,22 9.5,22 L9.5,22 L22.5,22 C23.328125,22 24,21.328125 24,20.5 L24,20.5 Z M22.5,10 L9.5,10 C8.671875,10 8,10.671875 8,11.5 L8,12.09375 C8,12.325 8.10625,12.540625 8.2875,12.684375 C9.24375,13.43125 9.559375,13.696875 13.70625,16.70625 C14.23125,17.0875 15.275,18.0125 16,18 C16.725,18.0125 17.76875,17.0875 18.29375,16.70625 C22.440625,13.696875 22.75625,13.434375 23.7125,12.684375 C23.89375,12.54375 24,12.325 24,12.09375 L24,11.5 C24,10.671875 23.328125,10 22.5,10 Z" id="Combined-Shape"></path>
            </g>
        </g>
    </g>
</svg>