<?xml version="1.0" encoding="UTF-8"?>
<svg width="32px" height="32px" viewBox="0 0 32 32" version="1.1" xmlns="http://www.w3.org/2000/svg" xmlns:xlink="http://www.w3.org/1999/xlink">
    <title>linkedin</title>
    <g id="Page-1" stroke="none" stroke-width="1" fill="none" fill-rule="evenodd">
        <g id="Artboard" transform="translate(-195.000000, -139.000000)" fill="#000000">
            <g id="linkedin" transform="translate(195.000000, 139.000000)">
                <path d="M16,0 C24.836556,0 32,7.163444 32,16 C32,24.836556 24.836556,32 16,32 C7.163444,32 0,24.836556 0,16 C0,7.163444 7.163444,0 16,0 Z M13,12.4545455 L9.36363636,12.4545455 L9.36363636,21.9090909 L13,21.9090909 L13,12.4545455 Z M20.9927273,12.4472727 C19.9286126,12.4620948 18.9027635,12.8464668 18.0909091,13.5345455 L18.0909091,13.5345455 L18.0909091,12.4545455 L14.4545455,12.4545455 L14.4545455,21.9090909 L18.0909091,21.9090909 L18.0909091,16.8181818 C18.0909091,16.0148585 18.7421313,15.3636364 19.5454545,15.3636364 C20.3487778,15.3636364 21,16.0148585 21,16.8181818 L21,16.8181818 L21,21.9090909 L24.6363636,21.9090909 L24.6363636,17.0690909 C24.6363636,14.0472727 23.1469091,12.4472727 20.9927273,12.4472727 Z M11.1818182,7.36363636 C10.1776641,7.36363636 9.36363636,8.17766409 9.36363636,9.18181818 C9.36363636,10.1859723 10.1776641,11 11.1818182,11 C12.1859723,11 13,10.1859723 13,9.18181818 C13,8.69960638 12.8084421,8.23714472 12.4674669,7.89616949 C12.1264916,7.55519426 11.66403,7.36363636 11.1818182,7.36363636 Z" id="Combined-Shape"></path>
            </g>
        </g>
    </g>
</svg>