<?xml version="1.0" encoding="UTF-8"?>
<svg width="77px" height="77px" viewBox="0 0 77 77" version="1.1" xmlns="http://www.w3.org/2000/svg" xmlns:xlink="http://www.w3.org/1999/xlink">
    <title>Combined Shape</title>
    <g id="Page-1" stroke="none" stroke-width="1" fill="none" fill-rule="evenodd">
        <g id="Artboard" transform="translate(-155.000000, -224.000000)" fill="#111111">
            <path d="M232.001425,224 L232.000915,236.845 L230.931717,231.212848 C230.379637,228.28766 230.095345,226.690006 230.07884,226.419886 C230.049267,226.059831 230.027039,225.840624 230.012154,225.762268 C229.963777,225.507608 229.873242,225.337583 229.740546,225.252193 C229.60785,225.166802 229.41243,225.159976 229.154284,225.231715 C228.810057,225.361258 228.319937,225.514772 227.683925,225.692257 C227.047913,225.869742 226.524154,225.999459 226.112648,226.081409 C225.645029,226.174534 225.29708,226.284487 225.068803,226.411269 C224.840525,226.538051 224.761739,226.787539 224.832442,227.159734 C224.869556,227.457296 225.003472,228.213343 225.234189,229.427873 L225.541191,231.043981 L224.991951,230.451966 C224.663141,230.110842 224.367831,229.782564 224.106021,229.467131 L223.915945,229.232965 L223.534899,228.759932 C223.075412,228.180539 222.667215,227.743408 222.310308,227.44854 C221.953402,227.153672 221.559843,227.049075 221.129633,227.13475 C220.792947,227.2018 220.519867,227.246017 220.310393,227.267403 C220.100919,227.288789 219.940067,227.310657 219.827839,227.333007 C219.622086,227.373982 219.420055,227.434546 219.221744,227.514699 C218.724059,227.756123 218.334,227.899875 218.051568,227.945956 C217.769135,227.992036 217.581157,228.024389 217.487633,228.043013 C217.300585,228.080263 217.163041,228.173728 217.075,228.323408 C216.986959,228.473088 216.97643,228.72423 217.043413,229.076836 C217.062019,229.174782 217.123518,229.396332 217.22791,229.741488 C217.36217,230.141686 217.514889,230.792337 217.686067,231.693439 C217.812589,232.359472 218.028322,233.597316 218.333267,235.406972 C218.548804,236.848158 218.788676,238.264167 219.052884,239.655 C219.332076,241.022519 219.685841,242.629315 220.114178,244.475388 C220.508926,246.24683 220.773282,247.485156 220.907247,248.190367 C220.977852,248.664233 221.068264,248.961346 221.178485,249.081708 C221.288705,249.20207 221.48038,249.214724 221.753509,249.119671 C222.101458,249.009718 222.472787,248.895109 222.867498,248.775843 C223.262208,248.656577 223.609202,248.567144 223.908478,248.507544 C224.117952,248.486159 224.255447,248.443529 224.320963,248.379656 C224.38648,248.315783 224.400631,248.185901 224.363419,247.990009 C224.33737,247.852885 224.30569,247.737212 224.268379,247.642991 C224.149004,247.32115 223.918995,246.340277 223.578354,244.700372 C223.237712,243.060467 222.970639,241.731196 222.777134,240.712558 C222.702611,240.422445 222.647698,240.158922 222.612395,239.921989 C222.585918,239.74429 222.560997,239.589152 222.537632,239.456575 L222.514786,239.33152 L222.174292,237.539108 L223.872103,239.732113 C225.231861,241.474019 226.074254,242.536241 226.399284,242.918778 C226.918936,243.517609 227.537286,244.340412 228.254335,245.387187 L228.47241,245.707939 L229.139166,246.612001 C229.40436,246.986124 229.64069,247.233848 229.848155,247.355174 C230.055621,247.476501 230.337049,247.501776 230.69244,247.431001 C230.898193,247.390026 231.259215,247.2978 231.775506,247.154322 C231.854501,247.131883 231.930034,247.110687 232.002106,247.090733 L232.003343,253.050652 C231.671301,252.860555 231.189248,252.58676 230.557185,252.229267 C229.291149,251.513201 227.535167,251.370991 225.289241,251.80264 C223.921033,252.065598 222.610534,252.656072 221.357745,253.574062 C220.104955,254.492053 219.14332,255.664476 218.472837,257.091333 C217.802355,258.518189 217.632868,260.074497 217.964378,261.760256 C218.365398,263.79948 219.198738,265.346465 220.464399,266.401211 C221.632702,267.374823 223.122782,268.214462 224.934639,268.920129 L225.394307,269.093755 L227.25188,269.752568 C228.914919,270.307682 230.162888,270.829699 230.995787,271.318621 C231.416813,271.565768 231.752603,271.858138 232.003157,272.19573 L232.002218,276.963128 C231.834593,277.189555 231.634193,277.391335 231.401017,277.568467 C230.282192,278.418385 229.038675,278.974823 227.670467,279.237781 C227.025085,279.361817 226.167793,279.293789 225.098589,279.033696 C224.029385,278.773602 223.292229,278.499072 222.887121,278.210106 C222.73131,278.098965 222.597534,277.997698 222.485793,277.906304 C222.374052,277.814911 222.281902,277.755024 222.209344,277.726643 C222.160971,277.707723 222.111513,277.698416 222.060969,277.698725 L221.984337,277.706398 L221.906892,277.721283 C221.752,277.751052 221.615176,277.974869 221.496419,278.392735 C221.377661,278.810602 221.310722,279.049205 221.2956,279.108546 C221.214647,279.37806 221.327307,279.610364 221.633582,279.805456 C222.225663,280.227791 223.16293,280.668437 224.445382,281.127393 C225.727833,281.586349 227.078978,281.679386 228.498817,281.406505 C229.756794,281.164733 230.924448,280.786263 232.001778,280.271097 L232.001425,301 L155.001425,301 L155.000918,272.822322 C155.074395,273.182734 155.149137,273.55267 155.225143,273.932129 C155.941744,277.509745 156.302317,279.698205 156.306862,280.497509 C156.30959,280.977092 156.434505,281.833713 156.681609,283.067374 C157.123306,285.272542 157.71446,287.822092 158.45507,290.716023 L158.628633,291.389966 L159.25602,294.056219 L159.424179,295.128731 C159.49831,295.498829 159.618272,295.748262 159.784064,295.87703 C159.949857,296.005798 160.227616,296.033437 160.61734,295.959945 C160.88715,295.909066 161.639255,295.703226 162.873655,295.342425 C164.695277,294.806876 165.852096,294.524717 166.344113,294.495949 C166.470206,294.504178 166.623188,294.491332 166.803061,294.457413 C167.372659,294.350002 167.60186,294.018723 167.490663,293.463575 C167.453598,293.278526 167.40772,293.127145 167.353031,293.009432 C167.152884,292.612663 166.576016,290.48117 165.622427,286.614954 L165.531924,286.247414 L164.602838,282.77388 L163.976815,280.347419 L167.187567,284.494913 C169.268111,287.271216 170.719368,289.157982 171.541337,290.155212 C172.085502,290.852759 172.478863,291.41871 172.721421,291.853067 C173.072448,292.362988 173.337036,292.713174 173.515184,292.903626 C173.667882,293.066869 173.843239,293.143538 174.041255,293.133632 L174.142151,293.121464 L179.195764,292.024457 L179.443089,291.977817 C179.548015,291.958031 179.672336,291.918584 179.816053,291.859477 C179.959769,291.800369 180.019272,291.709132 179.994562,291.585766 C179.951319,291.369876 179.651892,290.962246 179.096282,290.362878 C178.609672,289.894984 176.867998,287.851544 173.871259,284.232558 L173.603584,283.909147 L169.278976,278.627426 C169.916341,277.771088 170.445237,276.839184 170.865664,275.831716 C171.86077,273.499633 172.132841,271.207876 171.681877,268.956446 C171.113539,266.119026 169.804863,263.973326 167.755847,262.519346 C165.706832,261.065365 163.00351,260.654955 159.645881,261.288116 C158.504545,261.503342 157.022627,261.893182 155.200128,262.457636 L155.000915,262.519 L155.00025,257.427718 C156.229004,258.091267 158.223224,258.177788 160.98291,257.68728 C163.844665,257.178631 165.97885,256.272041 167.385466,254.96751 C168.792081,253.662979 169.279592,251.99455 168.847999,249.962223 C168.443381,248.056916 167.627389,246.499342 166.400024,245.2895 C165.172659,244.079657 163.904505,243.338417 162.59556,243.065779 C161.548404,242.847668 160.881179,242.709661 160.593886,242.651758 L160.449654,242.623349 C159.156471,242.369879 158.095395,242.053184 157.266425,241.673266 C156.437454,241.293348 155.92631,240.648232 155.732993,239.737919 C155.535179,238.806436 155.610975,238.172336 155.960381,237.835618 C156.309787,237.4989 156.799959,237.27447 157.430897,237.162326 C158.21957,237.022148 159.09824,237.140587 160.066907,237.517644 C161.035574,237.894702 162.049254,238.373605 163.107945,238.954353 C163.288159,239.032167 163.477377,239.124858 163.675601,239.232425 C163.873825,239.339993 163.99547,239.389771 164.040537,239.381761 C164.153204,239.361735 164.233209,239.325546 164.280552,239.273193 C164.327894,239.22084 164.380883,239.140022 164.439519,239.030739 C164.498156,238.921456 164.552283,238.818466 164.6019,238.721771 C164.723669,238.524374 164.874782,238.217409 165.055242,237.800874 C165.235701,237.384339 165.36653,237.091963 165.447727,236.923747 C165.461269,236.877402 165.486091,236.80159 165.522194,236.696312 C165.558297,236.591034 165.569605,236.50664 165.556117,236.44313 C165.533639,236.337279 165.468341,236.250024 165.360224,236.181364 C164.441229,235.597756 163.20453,235.03217 161.650129,234.484606 C160.095728,233.937043 158.248185,233.853504 156.107503,234.23399 C155.753436,234.296922 155.38453,234.410634 155.000788,234.575126 L155.001425,224 L232.001425,224 Z M186.591147,259.577079 C185.789719,259.642815 184.590352,259.827126 182.993046,260.130013 C181.230502,260.464233 179.648513,261.454089 178.24708,263.09958 C176.845646,264.745071 175.854667,266.76546 175.274141,269.160747 C174.693616,271.556033 174.646015,273.97243 175.131338,276.409936 C175.831606,279.352834 176.848511,281.948242 178.182051,284.196162 C181.174237,289.176503 184.956129,291.233232 189.527728,290.366349 C192.860039,289.734464 195.213061,288.275024 196.586795,285.988029 C197.96053,283.701034 198.689793,281.370964 198.774585,278.997818 C198.859377,276.624673 198.730807,274.579433 198.388875,272.862099 C198.184818,271.837238 197.705267,270.469378 196.95022,268.758518 C196.195174,267.047659 195.127539,265.34577 193.747315,263.652852 C192.367092,261.959934 190.740486,260.716162 188.867499,259.921536 C188.15136,259.626162 187.392575,259.511343 186.591147,259.577079 Z M187.889118,263.96089 C189.026904,264.811429 190.010155,266.069107 190.838873,267.733924 C191.667591,269.39874 192.259739,271.282734 192.615318,273.385905 C193.196385,276.822794 193.11917,279.80114 192.383675,282.320941 C191.64818,284.840743 190.139648,286.355367 187.85808,286.864811 C186.329859,287.206043 184.982803,286.901294 183.81691,285.950564 C182.651017,284.999834 181.690256,283.643976 180.934626,281.88299 C180.178996,280.122004 179.619055,278.164277 179.254804,276.009809 C178.946926,274.188771 178.918053,272.531676 179.168187,271.038524 C179.418321,269.545372 179.725911,268.392062 180.090957,267.578593 C180.456003,266.765125 180.922127,265.855891 181.489328,264.850893 C181.708434,264.429336 181.975004,264.090339 182.289038,263.833903 C182.603071,263.577466 182.991473,263.397583 183.454244,263.294252 L184.309832,263.10321 C185.558237,262.824458 186.751333,263.110351 187.889118,263.96089 Z M205.561991,255.778551 C204.209989,256.04944 202.935124,256.76538 201.737396,257.92637 C200.539669,259.08736 199.675397,260.872297 199.144581,263.281181 C198.613765,265.690065 198.695974,268.738835 199.391208,272.427491 C200.112578,276.254819 201.39921,279.717051 203.251104,282.814186 C205.102998,285.911322 207.887948,287.087417 211.605953,286.342472 C213.503956,285.962185 214.951366,284.837513 215.948183,282.968456 C216.945,281.099399 217.534555,278.930585 217.716848,276.462014 C217.89914,273.993444 217.781193,271.649788 217.363008,269.431048 C216.845503,266.685356 216.199578,264.260407 215.425233,262.156199 C214.650888,260.051992 213.463429,258.332763 211.862856,256.998514 C210.262283,255.664265 208.161995,255.25761 205.561991,255.778551 Z M209.725521,268.452825 C210.185618,269.155667 210.502092,270.025759 210.674941,271.063102 C210.856432,272.152311 210.840157,273.125005 210.626115,273.981184 C210.412073,274.837362 209.948155,275.34663 209.234361,275.508986 C208.520566,275.671342 208.001746,275.439437 207.677899,274.81327 C207.354052,274.187103 207.103544,273.342381 206.926373,272.279105 C206.753524,271.241763 206.757789,270.238155 206.939167,269.268282 C207.120545,268.298409 207.541694,267.738308 208.202615,267.587978 C208.757788,267.461701 209.265424,267.749983 209.725521,268.452825 Z M166.245849,265.7869 C166.993347,266.445657 167.530541,267.569485 167.857432,269.158384 C168.308315,271.349969 167.689732,272.970358 166.00168,274.019551 C165.283061,274.492687 164.432344,274.819503 163.449528,275 L163.215982,274.360574 L163.16209,273.602865 C162.959193,272.616651 162.892973,271.633767 162.963432,270.65421 C162.972592,270.368229 162.915176,269.923896 162.791183,269.32121 C162.644646,268.608945 162.465348,267.902696 162.25329,267.202464 C162.041232,266.502232 161.962328,266.118705 162.016576,266.051882 C162.450568,265.5173 163.027929,265.183826 163.74866,265.051462 C164.665954,264.882998 165.49835,265.128144 166.245849,265.7869 Z M230.977011,255.169081 L231.329646,255.339904 L231.648829,255.532515 C231.784075,255.588326 231.901809,255.623787 232.002031,255.638898 L232.00179,265.4274 C231.800467,265.329779 231.597795,265.243432 231.393775,265.168359 C230.310744,264.769837 229.073052,264.43631 227.680698,264.167781 C227.266735,264.106254 226.863005,264.028653 226.46951,263.934975 C225.091358,263.466195 223.943977,262.910736 223.027366,262.2686 C222.110755,261.626463 221.542838,260.748007 221.323614,259.633231 C221.066961,258.328127 221.312641,257.159273 222.060654,256.126666 C222.808667,255.09406 224.0733,254.406586 225.854552,254.064244 C227.175205,253.810426 228.882692,254.178704 230.977011,255.169081 Z M182.950536,229 C182.536905,229.021469 182.023478,229.093506 181.410255,229.216355 C181.007828,229.296975 180.731829,229.36254 180.582259,229.413051 C179.723161,229.708438 179.197796,229.875327 179.006164,229.913717 C178.799104,229.975745 178.676166,230.062014 178.63735,230.172524 C178.598535,230.283033 179.597557,236.488696 179.634417,236.789513 L180.008303,239.087756 L180.499838,242.009653 L180.682513,243.45242 L180.764347,244.360628 L180.092012,244.43368 C179.954135,244.440755 179.751054,244.471165 179.482769,244.524912 C179.233648,244.574819 179.053465,244.62119 178.942221,244.664022 C178.604753,244.772722 178.234805,244.867382 177.832378,244.948002 L176.59075,245.165922 L176.390534,243.788309 C176.227178,242.711512 176.085743,241.856338 175.966227,241.222786 L175.885844,240.798288 C175.727578,239.965774 175.584314,239.232149 175.456053,238.597414 C175.306414,237.85689 175.218278,237.468749 175.191645,237.432991 C175.150562,237.215208 175.053367,237.121672 174.900062,237.152385 L174.871317,237.158143 C174.603032,237.21189 174.36536,237.269777 174.158299,237.331805 L172.841641,237.626397 C172.458377,237.703178 172.063664,237.771979 171.657502,237.8328 C171.25134,237.893622 170.919963,237.929188 170.663372,237.939498 L170.284088,237.984662 C170.169108,238.007696 170.088476,238.054669 170.042191,238.125582 C169.995906,238.196495 169.987703,238.311145 170.017582,238.469533 L170.317905,240.535953 C170.531594,242.301255 170.690726,243.461085 170.795302,244.015443 C170.884938,244.490607 170.948186,244.878597 170.985046,245.179414 L171.298041,246.996735 C171.43623,247.729279 171.577021,248.317476 171.720412,248.761324 C171.780659,248.975268 171.885479,249.478211 172.034873,250.27015 L172.655994,253.720848 C172.707793,254.100858 172.774776,254.508647 172.856943,254.944214 L173.202818,257.093969 L173.392562,258.257939 C173.49053,258.777269 173.700824,259.02401 174.023443,258.998162 L174.114214,258.984354 L174.210556,258.957029 C175.061695,258.724877 175.552469,258.585465 175.682876,258.538793 L176.505271,258.312399 C176.735229,258.26633 177.03506,258.221674 177.404763,258.17843 C177.774466,258.135186 178.037838,258.108107 178.194878,258.097193 L178.496698,258.036728 C178.640422,258.007935 178.760315,257.958233 178.856375,257.887622 C178.952435,257.817012 178.958893,257.666754 178.875749,257.43685 C178.796339,257.226745 178.655793,256.587133 178.454111,255.518014 L178.168394,254.003429 C177.959242,252.894713 177.818051,251.988123 177.74482,251.283658 L177.478111,249.395424 C177.654314,249.380672 177.88614,249.344502 178.173588,249.286917 L178.754086,249.201443 L179.26589,249.068091 L180.496314,248.790775 L181.329913,248.623777 C181.445694,249.23753 181.541177,249.690976 181.616363,249.984115 C181.750818,250.69686 181.908171,251.425566 182.088422,252.170231 C182.243018,252.673474 182.429683,253.478495 182.648416,254.585291 C182.830694,255.507621 182.961663,256.176262 183.041322,256.591214 L183.08296,256.809743 C183.116574,256.987929 183.267523,257.050149 183.535808,256.996402 L183.593297,256.984885 C184.781415,256.746865 185.638157,256.54441 186.163522,256.377521 C186.577642,256.253465 186.823029,256.183759 186.899682,256.168403 C187.12964,256.122334 187.325007,256.103743 187.485782,256.112627 C187.524109,256.104949 187.592114,256.096462 187.689797,256.087166 C187.78748,256.07787 187.86998,256.040796 187.937296,255.975944 C188.004611,255.911091 188.017727,255.769773 187.976644,255.55199 L187.965439,255.492594 C187.795415,255.012988 187.501251,253.664469 187.082947,251.447037 L185.916205,245.578401 C185.830303,245.123035 185.702918,244.131492 185.534048,242.603772 C185.387587,241.194843 185.29008,240.361689 185.241527,240.104308 C185.14442,239.589547 185.003474,238.631541 184.818686,237.23029 C184.734252,236.46643 183.662155,229.926112 183.602397,229.609336 C183.56456,229.514183 183.529646,229.40817 183.497655,229.291299 C183.465664,229.174427 183.421046,229.096042 183.363801,229.056144 C183.306556,229.016245 183.168801,228.997612 182.950536,229 Z M191.376704,231.185884 C191.121876,231.240004 190.944321,231.414017 190.844039,231.707925 C190.743757,232.001833 190.671742,232.426043 190.627995,232.980554 C190.631371,233.456905 190.579673,234.109655 190.472901,234.938803 C190.366129,235.767951 190.304825,236.252359 190.288988,236.392028 C190.21019,236.749526 190.138987,237.321227 190.075379,238.107132 L190.021636,238.834148 L189.979383,239.797257 C189.899808,240.836446 189.84983,241.698967 189.829451,242.384821 C189.825297,242.590161 189.789469,243.074839 189.721966,243.838853 L189.619934,245.666566 C189.619286,246.234641 189.553471,247.236831 189.422489,248.673136 L189.350833,249.64249 C189.267233,250.773403 189.223163,251.611953 189.21862,252.158138 C189.230044,252.45104 189.21596,252.772076 189.176367,253.121248 C189.136773,253.47042 189.109058,253.71484 189.093221,253.854508 L189.044737,255.125628 C189.0289,255.265297 189.017022,255.370048 189.009103,255.439882 C189.001185,255.509717 189.00112,255.566524 189.008909,255.610305 C188.997096,255.658249 188.997031,255.715057 189.008714,255.780728 C188.980934,256.081955 189.055254,256.213836 189.231673,256.176368 L191.974007,256.054235 C192.052416,256.037583 192.110248,256.019621 192.147505,256.00035 C192.184763,255.981078 192.206377,255.931053 192.212348,255.850273 C192.21832,255.769494 192.229159,255.716077 192.244867,255.690024 C192.253174,255.279344 192.271153,254.980198 192.298804,254.792585 C192.310746,254.631026 192.324701,254.423605 192.340668,254.170321 C192.356635,253.917037 192.378379,253.753397 192.4059,253.679399 C192.492486,253.365683 192.516436,252.985757 192.477751,252.539622 C192.509814,251.919439 192.522146,251.417035 192.514745,251.032409 C192.52396,249.826423 192.538433,249.16454 192.558165,249.046762 L192.564785,248.397907 L192.565174,248.057061 C192.58114,247.803778 192.530124,247.392323 192.647737,247.367345 L192.950754,247.139455 C193.940169,246.926702 194.501144,246.796407 194.633677,246.748572 L195.886332,246.414385 C196.078459,246.350864 196.380346,246.275392 196.791991,246.187968 C196.909604,246.16299 196.997781,246.17266 197.056523,246.216979 C197.115265,246.261297 197.215061,246.393446 197.355911,246.613426 L197.789951,247.509459 C198.020635,248.005688 198.261184,248.443027 198.511599,248.821478 C198.652449,249.041458 198.827474,249.367767 199.036673,249.800406 C199.245871,250.233046 199.409083,250.607299 199.526307,250.923166 C199.663003,251.348486 199.868243,251.816042 200.142025,252.325836 C200.376603,252.843955 200.554516,253.215086 200.675764,253.439229 C200.738335,253.562245 200.797045,253.634967 200.851892,253.657395 C200.906739,253.679823 200.973367,253.682711 201.051776,253.666059 L202.698357,253.316364 C202.913981,253.270571 203.014004,253.203894 202.998426,253.116332 C202.986742,253.050661 202.937866,252.947453 202.851798,252.806709 C202.793121,252.705583 202.535923,252.26042 202.080204,251.471221 C201.624485,250.682021 201.277389,250.017416 201.038917,249.477406 C200.835624,249.020795 200.184532,247.70515 199.085638,245.530471 C198.862614,245.191638 198.322839,244.215832 197.466312,242.603053 L196.662491,241.17218 L195.782533,239.484866 C194.804758,237.647945 194.290491,236.644004 194.239733,236.473043 L193.840938,235.603602 C193.152912,234.02319 192.693493,233.041677 192.46268,232.659063 C192.400108,232.536047 192.294503,232.342659 192.145863,232.078898 C191.997224,231.815138 191.856374,231.595158 191.723312,231.41896 C191.590251,231.242761 191.474715,231.165069 191.376704,231.185884 Z M156.384911,247.267311 C156.781413,247.37259 157.20944,247.516203 157.668992,247.698152 C160.475813,248.912861 162.034328,250.250582 162.344535,251.711317 C162.524366,252.55812 162.331406,253.191076 161.765657,253.610185 C161.199907,254.029294 160.488896,254.314946 159.632623,254.46714 C158.046605,254.749039 156.502548,254.452697 155.000451,253.578114 L154.999915,246.81053 C155.431412,246.965742 155.893077,247.118002 156.384911,247.267311 Z M215.565848,228.197167 C215.500279,228.188549 215.364901,228.204021 215.159712,228.243583 C214.749334,228.322706 214.388017,228.43489 214.075761,228.580134 C213.665383,228.659258 213.489361,229.065243 213.547695,229.798091 C213.566833,230.113299 213.510767,230.751274 213.379498,231.712017 C213.257174,232.500957 213.182825,233.099938 213.156453,233.50896 C213.130081,233.917982 213.133336,234.587039 213.166219,235.516133 C213.183515,236.256893 213.183679,236.692688 213.166711,236.823519 L213.009367,237.651101 C212.980364,237.720472 212.957379,237.820573 212.940411,237.951404 L212.145699,236.829038 L210.788394,234.95412 C210.544009,234.576042 209.80283,233.400835 208.564857,231.428499 C208.471667,231.170089 208.373232,230.939264 208.269552,230.736026 C208.165873,230.532787 208.077467,230.353179 208.004336,230.1972 C207.971782,230.139697 207.935216,230.061708 207.894639,229.963232 C207.854062,229.864757 207.809242,229.798989 207.760181,229.765928 C207.71112,229.732868 207.614773,229.730184 207.471141,229.757877 C207.224914,229.805351 206.967441,230.556569 206.698722,232.01153 C206.643347,232.489923 206.586426,232.851686 206.52796,233.096817 C206.456078,233.599653 206.360751,234.308978 206.241977,235.224792 C206.123204,236.140606 206.052868,236.760073 206.030967,237.083193 L205.971975,237.923702 C205.883914,239.322571 205.802167,240.209986 205.726734,240.585948 L205.587442,241.505718 L205.542556,241.928939 L204.754552,240.677721 C204.269793,239.942051 203.714139,239.007452 203.08759,237.873923 C202.354434,236.739689 201.677821,235.567979 201.057749,234.358791 C200.437678,233.149604 200.091076,232.467021 200.017945,232.311043 C199.859647,231.937626 199.732555,231.696382 199.636668,231.587311 C199.540782,231.478239 199.396262,231.474214 199.203108,231.575235 L198.876581,231.701971 C198.736961,231.75015 198.49274,231.807868 198.143918,231.875122 L197.189789,232.059085 C197.128232,232.070953 197.078941,232.091087 197.041915,232.119485 C197.004889,232.147884 196.992393,232.192813 197.004428,232.254272 C197.03251,232.397677 197.113665,232.594628 197.247893,232.845126 L198.412438,235.203667 L199.424473,237.272714 C199.562712,237.543699 199.720238,237.8588 199.897049,238.218017 C200.07386,238.577234 200.261933,238.939594 200.461269,239.305098 C201.810648,242.063829 202.605525,243.62199 202.845898,243.979581 C202.91903,244.13556 203.163958,244.625147 203.580682,245.448344 C203.997406,246.271541 204.342232,246.890687 204.615159,247.305781 C204.737352,247.49482 204.945714,247.906419 205.240245,248.540576 C205.534777,249.174734 205.755174,249.647792 205.901437,249.959749 C206.303199,250.924019 206.561165,251.480188 206.675334,251.628254 C206.781019,251.841736 206.879799,251.992769 206.971674,252.081354 C207.063549,252.169939 207.181302,252.200385 207.324935,252.172692 C207.427529,252.152911 207.522446,252.012367 207.609684,251.751058 C207.696922,251.48975 207.74725,251.230243 207.760666,250.972538 L207.801605,250.039841 C207.901833,247.724452 208.004856,246.18451 208.110673,245.420012 L208.236549,244.757947 C208.438319,243.613532 208.597669,242.796194 208.714601,242.305932 L208.977006,241.362425 L209.630553,242.416339 C210.062239,243.098462 210.381761,243.642762 210.58912,244.049238 C211.70444,245.938923 212.370022,247.054296 212.585864,247.395358 C213.612006,249.047118 214.227211,249.959606 214.431479,250.13282 C214.606745,250.375406 214.738309,250.530748 214.826172,250.598847 C214.914035,250.666946 215.040042,250.685171 215.204193,250.653521 C215.26575,250.641653 215.303894,250.591779 215.318626,250.503899 C215.333357,250.416019 215.339063,250.282045 215.335741,250.101977 C215.33242,249.921908 215.328984,249.768437 215.325433,249.641563 C215.379427,249.482333 215.376632,248.706887 215.317049,247.315225 C215.309058,247.029758 215.304231,246.546362 215.302566,245.865039 L215.301956,245.11774 C215.302549,244.033374 215.324054,243.327652 215.366473,243.000575 C215.51734,242.248652 215.544633,241.626854 215.448352,241.135181 C215.416259,240.97129 215.378756,240.39919 215.335844,239.418881 C215.292933,238.438571 215.284893,237.690711 215.311726,237.175301 C215.389001,236.373788 215.463185,235.339012 215.534278,234.070973 C215.573606,233.510634 215.61494,232.960538 215.65828,232.420686 C215.70162,231.880833 215.738482,231.416639 215.768866,231.028104 C215.815296,230.721514 215.85617,230.277806 215.891486,229.696981 L216,228.783145 L215.989346,228.402522 C215.953241,228.218144 215.812075,228.149693 215.565848,228.197167 Z M192.449026,238.182911 C192.502454,238.171451 192.664694,238.462903 192.935745,239.057269 C192.982196,239.195042 193.109708,239.493944 193.31828,239.953974 C193.526853,240.414004 193.715917,240.810506 193.885472,241.14348 C194.031801,241.407567 194.187535,241.725038 194.352674,242.095893 C194.56659,242.554777 194.721279,242.866316 194.816742,243.030511 C194.92707,243.21614 194.987459,243.338613 194.997909,243.397928 C195.012539,243.48097 194.950397,243.537389 194.811485,243.567185 L193.942817,243.735044 C193.707733,243.785468 193.528168,243.836296 193.404121,243.887526 L192.480744,244.122521 C192.459373,244.127105 192.414482,244.139812 192.34607,244.160641 C192.277659,244.181471 192.206635,244.187472 192.132999,244.178644 C192.059363,244.169816 192.01523,244.123881 192.0006,244.040839 C191.99851,244.028976 192.001881,243.985163 192.010712,243.9094 C192.043476,243.717701 192.074681,243.375521 192.104326,242.882862 C192.133972,242.390202 192.153682,241.982775 192.163456,241.660582 C192.201108,241.307786 192.236383,240.878554 192.269281,240.372885 C192.302179,239.867216 192.327813,239.446208 192.346184,239.109859 L192.373385,238.697748 C192.391756,238.361399 192.416969,238.189787 192.449026,238.182911 Z" id="Combined-Shape"></path>
        </g>
    </g>
</svg>