<?xml version="1.0" encoding="UTF-8"?>
<svg width="32px" height="32px" viewBox="0 0 32 32" version="1.1" xmlns="http://www.w3.org/2000/svg" xmlns:xlink="http://www.w3.org/1999/xlink">
    <title>twitter</title>
    <g id="Page-1" stroke="none" stroke-width="1" fill="none" fill-rule="evenodd">
        <g id="Artboard" transform="translate(-195.000000, -100.000000)">
            <g id="twitter" transform="translate(195.000000, 100.000000)">
                <path d="M16,0 C24.836556,0 32,7.163444 32,16 C32,24.836556 24.836556,32 16,32 C7.163444,32 0,24.836556 0,16 C0,7.163444 7.163444,0 16,0 Z M17.2771623,9.19911732 C16.6207,9.90277963 16.2579539,10.8307047 16.2631581,11.7930289 L16.2631581,12.6351342 C13.2829475,13.249871 10.6766318,11.6246078 8.26315807,8.84566048 C7.84210544,11.0912773 8.26315807,12.7754878 9.52631596,13.8982921 L7,13.4772394 C7.3410528,15.2195552 8.14694754,16.5930289 10.3684212,16.8456605 L8.26315807,17.6877657 C9.07157912,19.3046078 10.3192638,19.6098676 12.2312145,19.7732592 L12.4736842,19.793029 C10.8795116,20.9320943 8.95876211,21.5230922 7,21.4772395 C17.7410526,26.2511343 23.8421053,19.2338711 23.8421053,13.0561869 L23.8421053,11.9378711 L25.5263159,10.5298676 L23.8421054,10.108815 L24.6842107,8.42460446 L22.6092633,9.01407816 C21.0857518,7.59275605 18.6984844,7.67560237 17.2771623,9.19911732 Z" id="Combined-Shape" fill="#000000"></path>
                <g id="social-media-twitter" transform="translate(7.000000, 8.000000)"></g>
            </g>
        </g>
    </g>
</svg>